HIERARCHY
ROOT newVegas:Hips
{
	OFFSET 0.000000 96.479958 0.000000
	CHANNELS 6 Xposition Yposition Zposition Xrotation Yrotation Zrotation
	JOINT newVegas:Pelvis
	{
		OFFSET 0.000000 0.000000 0.000000
		CHANNELS 3 Xrotation Yrotation Zrotation
		JOINT newVegas:LeftUpLeg
		{
			OFFSET 18.735201 -5.666702 -4.541200
			CHANNELS 3 Xrotation Yrotation Zrotation
			JOINT newVegas:LeftLeg
			{
				OFFSET -0.021200 -31.938179 0.493100
				CHANNELS 3 Xrotation Yrotation Zrotation
				JOINT newVegas:LeftFoot
				{
					OFFSET 0.021200 -31.938179 -4.336299
					CHANNELS 3 Xrotation Yrotation Zrotation
					JOINT newVegas:LeftToeBase
					{
						OFFSET 0.943001 -26.722000 15.023500
						CHANNELS 3 Xrotation Yrotation Zrotation
						End Site
						{
							OFFSET 0.000000 30.670183 0.000000
						}
					}
				}
				JOINT newVegas:Left_PantLeg
				{
					OFFSET 0.663870 -9.044666 -1.108900
					CHANNELS 3 Xrotation Yrotation Zrotation
					End Site
					{
						OFFSET 1.415995 20.635357 0.000000
					}
				}
			}
		}
		JOINT newVegas:RightUpLeg
		{
			OFFSET -18.735201 -5.666702 -4.541200
			CHANNELS 3 Xrotation Yrotation Zrotation
			JOINT newVegas:RightLeg
			{
				OFFSET 0.018946 -31.938133 0.493100
				CHANNELS 3 Xrotation Yrotation Zrotation
				JOINT newVegas:RightFoot
				{
					OFFSET -0.018946 -31.938126 -4.336299
					CHANNELS 3 Xrotation Yrotation Zrotation
					JOINT newVegas:RightToeBase
					{
						OFFSET -0.943001 -26.722004 15.023500
						CHANNELS 3 Xrotation Yrotation Zrotation
						End Site
						{
							OFFSET 0.000000 30.670187 0.000000
						}
					}
				}
				JOINT newVegas:Right_PantLeg
				{
					OFFSET -0.661674 -9.044716 -1.108900
					CHANNELS 3 Xrotation Yrotation Zrotation
					End Site
					{
						OFFSET -1.415958 20.635269 0.000000
					}
				}
			}
		}
	}
	JOINT newVegas:Spine
	{
		OFFSET 0.000000 10.199997 -0.299500
		CHANNELS 3 Xrotation Yrotation Zrotation
		JOINT newVegas:Spine1
		{
			OFFSET 0.000000 11.900002 -1.516600
			CHANNELS 3 Xrotation Yrotation Zrotation
			JOINT newVegas:Spine2
			{
				OFFSET 0.000000 13.600006 -2.842500
				CHANNELS 3 Xrotation Yrotation Zrotation
				JOINT newVegas:Neck
				{
					OFFSET 0.000000 9.624100 -2.890100
					CHANNELS 3 Xrotation Yrotation Zrotation
					JOINT newVegas:Head
					{
						OFFSET 0.000000 14.068802 -1.351900
						CHANNELS 3 Xrotation Yrotation Zrotation
						JOINT newVegas:Hair_Back
						{
							OFFSET 0.000000 3.231903 -17.524799
							CHANNELS 3 Xrotation Yrotation Zrotation
							End Site
							{
								OFFSET 0.000000 19.849884 0.000000
							}
						}
						JOINT newVegas:Hair_Front
						{
							OFFSET 0.000000 31.260406 4.573800
							CHANNELS 3 Xrotation Yrotation Zrotation
							JOINT newVegas:Hair_Front1
							{
								OFFSET 0.000000 2.284103 11.993300
								CHANNELS 3 Xrotation Yrotation Zrotation
								JOINT newVegas:Hair_Front2
								{
									OFFSET 0.000000 2.284103 11.993300
									CHANNELS 3 Xrotation Yrotation Zrotation
									End Site
									{
										OFFSET 0.000000 12.208862 0.000000
									}
								}
							}
						}
						JOINT newVegas:Jowel
						{
							OFFSET 0.000000 -7.458206 6.864100
							CHANNELS 3 Xrotation Yrotation Zrotation
							End Site
							{
								OFFSET 0.000000 19.849884 0.000000
							}
						}
					}
				}
				JOINT newVegas:LeftShoulder
				{
					OFFSET 15.263000 10.923401 -0.547700
					CHANNELS 3 Xrotation Yrotation Zrotation
					JOINT newVegas:LeftArm
					{
						OFFSET 25.438599 -2.830597 -13.032500
						CHANNELS 3 Xrotation Yrotation Zrotation
						JOINT newVegas:LeftForeArm
						{
							OFFSET 29.960503 0.000000 0.000000
							CHANNELS 3 Xrotation Yrotation Zrotation
							JOINT newVegas:LeftHand
							{
								OFFSET 27.849251 0.000000 0.000000
								CHANNELS 3 Xrotation Yrotation Zrotation
								JOINT newVegas:LeftHandThumb1
								{
									OFFSET 4.487587 -3.305161 6.305391
									CHANNELS 3 Xrotation Yrotation Zrotation
									JOINT newVegas:LeftHandThumb2
									{
										OFFSET 5.480453 -3.164139 3.164143
										CHANNELS 3 Xrotation Yrotation Zrotation
										JOINT newVegas:LeftHandThumb3
										{
											OFFSET 5.159721 -2.978973 2.978967
											CHANNELS 3 Xrotation Yrotation Zrotation
											End Site
											{
												OFFSET 2.494507 5.926697 1.738678
											}
										}
									}
								}
								JOINT newVegas:LeftHandIndex1
								{
									OFFSET 18.578728 -0.527832 5.208049
									CHANNELS 3 Xrotation Yrotation Zrotation
									JOINT newVegas:LeftHandIndex2
									{
										OFFSET 3.192009 0.000000 0.000000
										CHANNELS 3 Xrotation Yrotation Zrotation
										JOINT newVegas:LeftHandIndex3
										{
											OFFSET 3.835129 0.000000 0.000000
											CHANNELS 3 Xrotation Yrotation Zrotation
											End Site
											{
												OFFSET -0.034599 3.816971 0.371180
											}
										}
									}
								}
								JOINT newVegas:LeftHandMiddle1
								{
									OFFSET 18.476105 0.000000 0.000000
									CHANNELS 3 Xrotation Yrotation Zrotation
									JOINT newVegas:LeftHandMiddle2
									{
										OFFSET 3.324875 0.000000 0.000000
										CHANNELS 3 Xrotation Yrotation Zrotation
										JOINT newVegas:LeftHandMiddle3
										{
											OFFSET 4.596550 0.000000 0.000000
											CHANNELS 3 Xrotation Yrotation Zrotation
											End Site
											{
												OFFSET 0.057701 4.578827 0.399218
											}
										}
									}
								}
								JOINT newVegas:LeftHandRing1
								{
									OFFSET 17.732719 0.121887 -4.201567
									CHANNELS 3 Xrotation Yrotation Zrotation
									JOINT newVegas:LeftHandRing2
									{
										OFFSET 2.733170 0.000000 0.000000
										CHANNELS 3 Xrotation Yrotation Zrotation
										JOINT newVegas:LeftHandRing3
										{
											OFFSET 3.178268 0.000000 0.000000
											CHANNELS 3 Xrotation Yrotation Zrotation
											End Site
											{
												OFFSET 0.119102 3.170624 0.185394
											}
										}
									}
								}
								JOINT newVegas:LeftHandPinky1
								{
									OFFSET 15.989624 -0.606689 -7.535461
									CHANNELS 3 Xrotation Yrotation Zrotation
									JOINT newVegas:LeftHandPinky2
									{
										OFFSET 2.538986 0.000000 0.000000
										CHANNELS 3 Xrotation Yrotation Zrotation
										JOINT newVegas:LeftHandPinky3
										{
											OFFSET 2.593102 0.000000 0.000000
											CHANNELS 3 Xrotation Yrotation Zrotation
											End Site
											{
												OFFSET -0.150902 2.584198 0.152708
											}
										}
									}
								}
							}
							JOINT newVegas:Left_Sleeve
							{
								OFFSET 0.267448 -0.649796 0.577675
								CHANNELS 3 Xrotation Yrotation Zrotation
								End Site
								{
									OFFSET 0.000000 15.991241 0.000000
								}
							}
							JOINT newVegas:Left_CapeC
							{
								OFFSET 15.715958 -8.608795 -6.935905
								CHANNELS 3 Xrotation Yrotation Zrotation
								JOINT newVegas:Left_CapeC1
								{
									OFFSET 0.000000 -8.688499 0.000000
									CHANNELS 3 Xrotation Yrotation Zrotation
									End Site
									{
										OFFSET 0.000000 8.688499 0.000000
									}
								}
							}
						}
						JOINT newVegas:Left_CapeB
						{
							OFFSET 26.118385 -8.608795 -7.079235
							CHANNELS 3 Xrotation Yrotation Zrotation
							JOINT newVegas:Left_CapeB1
							{
								OFFSET 0.000000 -8.688499 0.000000
								CHANNELS 3 Xrotation Yrotation Zrotation
								End Site
								{
									OFFSET 0.000000 8.688499 0.000000
								}
							}
						}
						JOINT newVegas:Left_CapeA
						{
							OFFSET 5.115639 -8.608795 -10.395809
							CHANNELS 3 Xrotation Yrotation Zrotation
							JOINT newVegas:Left_CapeA1
							{
								OFFSET 0.000000 -8.688499 0.000000
								CHANNELS 3 Xrotation Yrotation Zrotation
								End Site
								{
									OFFSET 0.000000 8.688499 0.000000
								}
							}
						}
					}
				}
				JOINT newVegas:RightShoulder
				{
					OFFSET -15.263000 10.923401 -0.547700
					CHANNELS 3 Xrotation Yrotation Zrotation
					JOINT newVegas:RightArm
					{
						OFFSET -25.438599 -2.830597 -13.032500
						CHANNELS 3 Xrotation Yrotation Zrotation
						JOINT newVegas:RightForeArm
						{
							OFFSET -29.960503 0.000000 0.000000
							CHANNELS 3 Xrotation Yrotation Zrotation
							JOINT newVegas:RightHand
							{
								OFFSET -27.849251 0.000000 0.000000
								CHANNELS 3 Xrotation Yrotation Zrotation
								JOINT newVegas:RightHandThumb1
								{
									OFFSET -4.487587 -3.305161 6.305391
									CHANNELS 3 Xrotation Yrotation Zrotation
									JOINT newVegas:RightHandThumb2
									{
										OFFSET -5.480453 -3.164139 3.164143
										CHANNELS 3 Xrotation Yrotation Zrotation
										JOINT newVegas:RightHandThumb3
										{
											OFFSET -5.159721 -2.978973 2.978967
											CHANNELS 3 Xrotation Yrotation Zrotation
											End Site
											{
												OFFSET -2.494507 5.926697 1.738678
											}
										}
									}
								}
								JOINT newVegas:RightHandIndex1
								{
									OFFSET -18.578728 -0.527832 5.208049
									CHANNELS 3 Xrotation Yrotation Zrotation
									JOINT newVegas:RightHandIndex2
									{
										OFFSET -3.192009 0.000000 0.000000
										CHANNELS 3 Xrotation Yrotation Zrotation
										JOINT newVegas:RightHandIndex3
										{
											OFFSET -3.835129 0.000000 0.000000
											CHANNELS 3 Xrotation Yrotation Zrotation
											End Site
											{
												OFFSET 0.034599 3.816971 0.371180
											}
										}
									}
								}
								JOINT newVegas:RightHandMiddle1
								{
									OFFSET -18.476105 0.000000 0.000000
									CHANNELS 3 Xrotation Yrotation Zrotation
									JOINT newVegas:RightHandMiddle2
									{
										OFFSET -3.324875 0.000000 0.000000
										CHANNELS 3 Xrotation Yrotation Zrotation
										JOINT newVegas:RightHandMiddle3
										{
											OFFSET -4.596550 0.000000 0.000000
											CHANNELS 3 Xrotation Yrotation Zrotation
											End Site
											{
												OFFSET -0.057701 4.578827 0.399218
											}
										}
									}
								}
								JOINT newVegas:RightHandRing1
								{
									OFFSET -17.732719 0.121887 -4.201567
									CHANNELS 3 Xrotation Yrotation Zrotation
									JOINT newVegas:RightHandRing2
									{
										OFFSET -2.733170 0.000000 0.000000
										CHANNELS 3 Xrotation Yrotation Zrotation
										JOINT newVegas:RightHandRing3
										{
											OFFSET -3.178268 0.000000 0.000000
											CHANNELS 3 Xrotation Yrotation Zrotation
											End Site
											{
												OFFSET -0.119102 3.170624 0.185394
											}
										}
									}
								}
								JOINT newVegas:RightHandPinky1
								{
									OFFSET -15.989624 -0.606689 -7.535461
									CHANNELS 3 Xrotation Yrotation Zrotation
									JOINT newVegas:RightHandPinky2
									{
										OFFSET -2.538986 0.000000 0.000000
										CHANNELS 3 Xrotation Yrotation Zrotation
										JOINT newVegas:RightHandPinky3
										{
											OFFSET -2.593102 0.000000 0.000000
											CHANNELS 3 Xrotation Yrotation Zrotation
											End Site
											{
												OFFSET 0.150902 2.584198 0.152708
											}
										}
									}
								}
							}
							JOINT newVegas:Right_CapeC
							{
								OFFSET -15.715958 -8.608795 -6.935905
								CHANNELS 3 Xrotation Yrotation Zrotation
								JOINT newVegas:Right_CapeC1
								{
									OFFSET 0.000000 -8.688499 0.000000
									CHANNELS 3 Xrotation Yrotation Zrotation
									End Site
									{
										OFFSET 0.000000 8.688499 0.000000
									}
								}
							}
							JOINT newVegas:Right_Sleeve
							{
								OFFSET -0.267448 -0.649994 0.577675
								CHANNELS 3 Xrotation Yrotation Zrotation
								End Site
								{
									OFFSET 0.000000 15.991302 0.000000
								}
							}
						}
						JOINT newVegas:Right_CapeA
						{
							OFFSET -5.115540 -8.608795 -10.395824
							CHANNELS 3 Xrotation Yrotation Zrotation
							JOINT newVegas:Right_CapeA1
							{
								OFFSET 0.000000 -8.688499 0.000000
								CHANNELS 3 Xrotation Yrotation Zrotation
								End Site
								{
									OFFSET 0.000000 8.688499 0.000000
								}
							}
						}
						JOINT newVegas:Right_CapeB
						{
							OFFSET -26.118187 -8.608795 -7.079266
							CHANNELS 3 Xrotation Yrotation Zrotation
							JOINT newVegas:Right_CapeB1
							{
								OFFSET 0.000000 -8.688499 0.000000
								CHANNELS 3 Xrotation Yrotation Zrotation
								End Site
								{
									OFFSET 0.000000 8.688499 0.000000
								}
							}
						}
					}
				}
				JOINT newVegas:Left_Collar
				{
					OFFSET 18.625099 8.655502 8.828100
					CHANNELS 3 Xrotation Yrotation Zrotation
					JOINT newVegas:Left_Collar1
					{
						OFFSET 14.783401 10.540405 -1.259500
						CHANNELS 3 Xrotation Yrotation Zrotation
						End Site
						{
							OFFSET 0.000000 18.199875 0.000000
						}
					}
				}
				JOINT newVegas:Collar_Back
				{
					OFFSET 0.000000 15.630707 -20.132601
					CHANNELS 3 Xrotation Yrotation Zrotation
					End Site
					{
						OFFSET 0.000000 22.523010 0.000000
					}
				}
				JOINT newVegas:Left_Peck
				{
					OFFSET 17.239599 -5.132599 25.482599
					CHANNELS 3 Xrotation Yrotation Zrotation
					End Site
					{
						OFFSET 0.000000 22.523010 0.000000
					}
				}
				JOINT newVegas:Right_Peck
				{
					OFFSET -17.239599 -5.132202 25.482599
					CHANNELS 3 Xrotation Yrotation Zrotation
					End Site
					{
						OFFSET 0.000000 22.523010 0.000000
					}
				}
				JOINT newVegas:Right_Collar
				{
					OFFSET -18.625099 8.655792 8.828100
					CHANNELS 3 Xrotation Yrotation Zrotation
					JOINT newVegas:Right_Collar1
					{
						OFFSET -14.783401 10.539993 -1.259500
						CHANNELS 3 Xrotation Yrotation Zrotation
						End Site
						{
							OFFSET 0.000000 18.199631 0.000000
						}
					}
				}
			}
		}
		JOINT newVegas:Belly
		{
			OFFSET 0.000000 -6.540398 9.014299
			CHANNELS 3 Xrotation Yrotation Zrotation
			End Site
			{
				OFFSET 0.000000 11.566666 0.000000
			}
		}
	}
	JOINT newVegas:ElvisFacialAnim_Joint
	{
		OFFSET 1.000000 -95.330101 -8.825800
		CHANNELS 3 Xrotation Yrotation Zrotation
		End Site
		{
			OFFSET 0.000000 35.315800 0.000000
		}
	}
}
MOTION
Frames: 4
Frame Time: 0.033333
-2.792247 75.003799 4.604391 -14.884862 -9.671016 0.570709 0.000000 0.000001 0.000000 -51.273458 -7.274240 5.361243 59.975679 -22.966023 5.183037 4.154357 7.574365 -19.176268 0.000000 -0.000002 -0.000000 0.000000 -0.000002 -0.000001 14.152341 -5.451226 -12.742466 69.700694 -2.146439 -5.441799 -56.970160 -3.944443 14.825759 0.000000 -0.000000 0.000000 0.000003 0.000001 -0.000000 6.408215 1.463489 0.827599 -0.428237 2.915433 -0.775975 -0.757017 2.940136 -0.677376 -2.509368 0.842065 0.264396 -2.509367 0.842065 0.264396 -0.000000 0.000000 0.000000 -2.509360 0.842065 0.264396 -2.509388 0.842066 0.264396 -0.000001 0.000000 0.000000 -0.000000 0.000000 0.000000 -6.095582 -22.051851 0.905453 -43.861286 -44.819117 -44.288186 60.203070 -22.319419 25.114083 4.088552 -20.214027 57.646653 -13.461648 -6.303071 27.913332 7.980997 33.305389 2.907230 0.000002 -0.000002 -0.000003 8.650477 -0.603161 -26.181874 -0.177044 0.259113 -20.600682 -0.000004 -0.000002 -0.000001 8.852454 0.446142 -32.803175 0.204473 0.633213 -16.950554 0.000001 0.000000 -0.000004 8.850621 0.293222 -20.710793 0.024372 0.280705 -22.564669 -0.000000 0.000003 -0.000003 9.890588 3.682261 -23.246498 0.158851 0.237106 -23.613815 0.000002 0.000000 -0.000005 0.000000 0.000002 0.000003 0.000000 0.000002 0.000003 -0.000000 0.000002 0.000003 -0.000000 0.000000 -0.000000 -0.000000 0.000000 -0.000000 -0.000000 0.000000 -0.000000 0.000000 0.000000 -0.000000 -5.066015 33.812670 -0.428067 -22.105363 55.199413 24.292469 60.704624 18.729241 -25.753006 -7.542498 -18.200386 -41.670028 -13.899811 12.016620 -32.431507 7.566994 -31.900539 -2.460455 0.000002 -0.000003 0.000001 8.643323 0.631857 1.323001 -0.127282 -0.302879 12.105333 -0.000001 0.000001 0.000000 8.793235 -0.260915 1.706140 0.355607 -0.462323 21.287772 -0.000000 0.000000 0.000001 8.829495 -0.202517 5.484575 0.111362 -0.092476 26.949457 0.000003 0.000002 0.000002 9.891052 -3.682520 23.687214 0.226028 -0.076026 28.092795 -0.000002 0.000002 -0.000001 0.000002 0.000000 -0.000002 0.000000 0.000001 -0.000002 0.000002 -0.000000 -0.000001 -0.000000 0.000000 -0.000000 0.000000 0.000000 -0.000000 -0.000000 0.000000 -0.000000 0.000000 -0.000000 -0.000000 -0.000001 0.000000 0.000000 -0.000001 0.000000 0.000000 -0.000001 0.000000 0.000000 -0.000001 0.000000 0.000000 -0.000001 0.000000 0.000000 -0.000001 0.000000 0.000000 -0.000001 0.000000 0.000000 -0.000000 0.000000 -0.000000 0.000000 0.000001 0.000000 
-2.683619 75.162155 4.501617 -14.897420 -9.839479 0.240407 0.000002 0.000001 0.000000 -51.078289 -7.469781 5.357905 59.879360 -22.676117 5.539919 4.207067 7.609058 -19.398072 0.000000 0.000000 0.000000 0.000001 0.000001 0.000000 13.371000 -5.982424 -13.412556 70.001045 -0.567450 -5.107657 -56.407131 -3.302945 13.987812 -0.000000 0.000000 -0.000000 0.000001 -0.000001 0.000000 6.858341 1.447546 0.852264 -0.684428 2.953902 -0.519072 -1.040312 2.965174 -0.425201 -2.416369 0.836409 0.297099 -2.416369 0.836409 0.297099 -0.000000 0.000000 -0.000000 -2.416377 0.836411 0.297098 -2.416368 0.836407 0.297100 0.000001 -0.000000 -0.000000 -0.000000 0.000000 0.000000 -6.121728 -21.984268 0.891496 -44.144575 -45.005155 -44.383986 60.271761 -22.468990 25.133599 3.838737 -19.839649 57.393861 -13.461649 -6.303068 27.913339 7.981004 33.305389 2.907233 0.000002 -0.000001 -0.000003 8.650477 -0.603158 -26.181876 -0.177044 0.259117 -20.600687 0.000001 -0.000002 -0.000003 8.852484 0.446167 -32.803158 0.204517 0.633171 -16.950580 0.000003 -0.000001 0.000002 8.850621 0.293228 -20.710790 0.024370 0.280703 -22.564669 0.000003 -0.000001 -0.000001 9.890583 3.682263 -23.246496 0.158850 0.237104 -23.613820 -0.000002 -0.000003 -0.000001 -0.000002 -0.000001 0.000003 -0.000002 -0.000001 0.000003 -0.000003 -0.000001 0.000003 0.000001 0.000001 0.000001 0.000001 0.000000 0.000001 0.000001 0.000001 0.000001 0.000001 -0.000000 0.000001 -4.723330 34.264385 -1.296279 -22.785446 53.731076 24.940180 61.384358 18.961428 -27.077593 -7.464053 -18.139002 -41.229733 -13.899809 12.016628 -32.431507 7.566997 -31.900535 -2.460455 0.000002 0.000001 -0.000000 8.643312 0.631929 1.275197 -0.127339 -0.302662 12.045781 0.000001 0.000001 0.000001 8.793229 -0.260702 1.669482 0.355718 -0.462371 21.239981 -0.000001 -0.000001 -0.000000 8.829509 -0.202337 5.458600 0.111366 -0.092351 26.912841 0.000004 0.000002 0.000001 9.891086 -3.682423 23.676588 0.226052 -0.076023 28.072054 0.000000 0.000003 0.000000 0.000001 -0.000002 0.000001 0.000001 -0.000002 0.000001 0.000001 -0.000001 0.000002 -0.000001 0.000002 -0.000000 -0.000001 0.000002 -0.000000 -0.000001 0.000002 -0.000000 -0.000001 0.000002 -0.000000 0.000001 0.000000 0.000000 0.000001 0.000000 0.000000 0.000001 0.000000 0.000000 0.000001 0.000000 0.000000 0.000001 0.000000 0.000000 0.000001 0.000000 0.000000 0.000001 0.000000 0.000000 -0.000001 0.000000 -0.000000 0.000002 0.000001 0.000000 
-2.598075 75.419617 4.481779 -15.058629 -10.183574 -0.115006 0.000000 0.000001 -0.000000 -50.459238 -7.777817 5.259234 59.787228 -22.045206 6.067579 4.040493 7.672248 -19.790041 0.000000 -0.000001 0.000000 -0.000000 -0.000000 -0.000001 12.919105 -6.165554 -13.810933 69.974059 0.492983 -4.984281 -55.644943 -2.834889 13.467966 -0.000000 0.000000 -0.000000 0.000001 -0.000002 -0.000001 7.238905 1.469195 0.858275 -0.859730 3.058771 -0.214278 -1.226579 3.062446 -0.129491 -2.334620 0.839722 0.335425 -2.334630 0.839722 0.335425 -0.000001 0.000000 -0.000000 -2.334633 0.839723 0.335426 -2.334495 0.839722 0.335424 0.000001 -0.000000 0.000000 -0.000001 0.000000 0.000000 -6.130787 -22.021199 0.886546 -44.009456 -44.912879 -44.223545 60.585035 -22.880816 25.555897 3.443389 -19.154700 57.116866 -13.461650 -6.303072 27.913330 7.980997 33.305389 2.907228 -0.000001 0.000000 -0.000004 8.650481 -0.603156 -26.181877 -0.177042 0.259117 -20.600680 -0.000001 0.000001 0.000002 8.852443 0.446165 -32.803189 0.204495 0.633183 -16.950581 -0.000000 -0.000005 0.000002 8.850620 0.293225 -20.710793 0.024372 0.280705 -22.564672 0.000002 -0.000001 0.000001 9.890587 3.682262 -23.246498 0.158855 0.237106 -23.613822 -0.000003 -0.000002 0.000001 0.000003 -0.000003 0.000001 0.000003 -0.000003 0.000001 0.000002 -0.000002 0.000001 0.000001 0.000000 -0.000000 0.000001 0.000000 -0.000000 0.000001 0.000000 -0.000000 0.000001 -0.000000 -0.000000 -4.712117 34.283687 -1.383820 -22.240853 53.370111 24.485875 61.909764 18.862710 -27.886489 -7.844185 -17.877108 -41.057913 -13.899809 12.016625 -32.431507 7.566997 -31.900535 -2.460453 0.000000 -0.000000 -0.000001 8.643309 0.631907 1.273738 -0.127357 -0.302631 12.034766 0.000001 -0.000003 -0.000000 8.793192 -0.260788 1.677371 0.355720 -0.462325 21.238523 -0.000001 0.000000 0.000002 8.829471 -0.202465 5.475652 0.111366 -0.092362 26.920707 0.000005 0.000002 0.000000 9.891067 -3.682574 23.707009 0.226011 -0.076064 28.093577 -0.000003 0.000002 0.000001 0.000000 0.000000 -0.000000 -0.000002 -0.000003 0.000001 -0.000000 -0.000000 0.000001 0.000000 0.000001 0.000001 0.000001 0.000001 0.000001 0.000000 0.000001 0.000001 0.000001 0.000001 0.000001 -0.000000 -0.000000 -0.000000 -0.000000 -0.000000 -0.000000 -0.000000 -0.000000 -0.000000 -0.000000 -0.000000 -0.000000 -0.000000 -0.000000 -0.000000 -0.000000 -0.000000 -0.000000 -0.000000 -0.000000 -0.000000 -0.000001 0.000000 0.000000 0.000000 0.000001 -0.000000 
-2.536298 75.716095 4.506056 -15.361818 -10.693013 -0.486009 0.000001 -0.000000 0.000000 -49.525019 -8.205724 5.084818 59.739573 -21.091167 6.713515 3.695142 7.749195 -20.347260 0.000000 -0.000001 0.000000 0.000000 -0.000000 0.000003 12.737738 -5.951409 -13.938593 69.812859 1.067946 -5.030989 -54.832636 -2.579930 13.220776 0.000000 -0.000001 0.000000 -0.000001 0.000001 -0.000002 7.719014 1.558712 1.080608 -1.078825 3.205482 -0.031462 -1.405883 3.208681 0.042463 -2.309801 0.851438 0.375802 -2.309795 0.851439 0.375802 -0.000001 0.000000 -0.000000 -2.309790 0.851442 0.375800 -2.309793 0.851439 0.375802 0.000001 -0.000000 -0.000000 -0.000001 0.000000 0.000000 -6.155321 -21.942056 0.866497 -43.497315 -44.670404 -44.092085 61.157603 -23.371174 26.282845 3.008956 -18.349450 56.974460 -13.461652 -6.303062 27.913334 7.980996 33.305392 2.907230 0.000002 0.000002 -0.000002 8.650477 -0.603160 -26.181876 -0.177043 0.259118 -20.600682 -0.000003 0.000002 -0.000002 8.852484 0.446164 -32.803169 0.204515 0.633203 -16.950585 0.000005 -0.000000 0.000000 8.850619 0.293229 -20.710792 0.024370 0.280697 -22.564674 0.000000 0.000003 -0.000000 9.890586 3.682265 -23.246494 0.158850 0.237108 -23.613820 -0.000000 -0.000007 0.000002 0.000000 -0.000001 -0.000000 0.000000 -0.000001 -0.000000 -0.000001 -0.000001 0.000000 0.000000 0.000000 -0.000001 0.000000 0.000000 -0.000001 0.000000 0.000000 -0.000001 0.000000 0.000000 -0.000001 -4.889222 34.249997 -0.922509 -20.905073 53.300436 23.544663 60.914236 19.532401 -28.249268 -6.623977 -17.783407 -40.925097 -13.899811 12.016625 -32.431507 7.566992 -31.900532 -2.460448 0.000001 -0.000002 -0.000001 8.643335 0.631843 1.324736 -0.127300 -0.302801 12.075780 -0.000001 0.000001 0.000000 8.793236 -0.261109 1.738443 0.355617 -0.462353 21.289587 -0.000002 0.000001 0.000001 8.829543 -0.202913 5.546929 0.111345 -0.092616 26.981802 -0.000000 0.000002 -0.000001 9.891227 -3.682874 23.793980 0.226002 -0.076117 28.170063 -0.000001 0.000002 -0.000001 0.000001 0.000001 0.000002 0.000001 -0.000001 -0.000001 0.000001 0.000001 0.000001 -0.000000 0.000000 -0.000001 -0.000000 0.000000 -0.000000 -0.000000 0.000000 -0.000001 -0.000000 -0.000000 -0.000000 -0.000001 0.000000 0.000000 -0.000001 0.000000 0.000000 -0.000001 0.000000 0.000000 -0.000001 0.000000 0.000000 -0.000001 0.000000 0.000000 -0.000001 0.000000 0.000000 -0.000001 0.000000 0.000000 -0.000001 0.000000 0.000000 0.000001 -0.000000 0.000000 
